<svg width="512px" height="512px" viewBox="0 0 512 512" xmlns="http://www.w3.org/2000/svg"><path x="0" fill="none" width="24" height="24" d="M0 0H512V512H0V0z"/><g><path d="M341.333 384H170.667v-42.667h170.667v42.667zm0 -128H170.667v42.667h170.667v-42.667zm42.667 -192h-42.667v42.667h42.667v320H128V106.667h42.667V64H128c-23.573 0 -42.667 19.093 -42.667 42.667v320c0 23.573 19.093 42.667 42.667 42.667h256c23.573 0 42.667 -19.093 42.667 -42.667V106.667c0 -23.573 -19.093 -42.667 -42.667 -42.667zm-85.333 42.667V85.333c0 -23.573 -19.093 -42.667 -42.667 -42.667s-42.667 19.093 -42.667 42.667v21.333c-23.573 0 -42.667 19.093 -42.667 42.667v21.333h170.667V149.333c0 -23.573 -19.093 -42.667 -42.667 -42.667z"/></g></svg>