<svg width="1000" height="428" viewBox="0 0 1000 428" fill="none" xmlns="http://www.w3.org/2000/svg">
<rect width="1000" height="428" fill="#F5F5F5"/>
<rect width="1000" height="428" fill="white"/>
<svg width="509px" height="509px" viewBox="0 0 509 509" xmlns="http://www.w3.org/2000/svg"><path d="M404.146 189.348s-3.054 -21.378 -12.216 -30.54c-11.198 -12.216 -24.432 -12.216 -30.54 -13.234C318.634 142.52 254.5 142.52 254.5 142.52s-64.134 0 -106.89 3.054c-6.108 1.018 -19.342 1.018 -30.54 13.234 -9.162 9.162 -12.216 30.54 -12.216 30.54S101.8 213.78 101.8 238.212v22.396c0 24.432 3.054 49.882 3.054 49.882s3.054 21.378 12.216 30.54c11.198 12.216 26.468 12.216 33.594 13.234 24.432 1.018 103.836 2.036 103.836 2.036s64.134 0 106.89 -3.054c6.108 -1.018 19.342 -1.018 30.54 -13.234 9.162 -9.162 12.216 -30.54 12.216 -30.54s3.054 -24.432 3.054 -48.864v-22.396c0 -24.432 -3.054 -48.864 -3.054 -48.864zm-181.204 99.764V203.6l82.458 42.756 -82.458 42.756z"/></svg>
</svg>
